<!DOCTYPE svg PUBLIC "-//W3C//DTD SVG 20010904//EN" "http://www.w3.org/TR/2001/REC-SVG-20010904/DTD/svg10.dtd">
<svg version="1.0" xmlns="http://www.w3.org/2000/svg" width="348px" height="225px" viewBox="0 0 3480 2250" preserveAspectRatio="xMidYMid meet">
<g id="layer101" fill="#121111" stroke="none">
 <path d="M0 1125 l0 -1125 1740 0 1740 0 0 1125 0 1125 -1740 0 -1740 0 0 -1125z"/>
 </g>
<g id="layer102" fill="#ffffff" stroke="none">
 <path d="M0 1125 l0 -1125 1740 0 1740 0 0 1125 0 1125 -1740 0 -1740 0 0 -1125z m1240 765 l0 -91 -31 16 c-17 9 -42 15 -57 13 -23 -2 -28 -9 -30 -37 -3 -31 3 -41 64 -99 l68 -65 7 -211 c6 -215 6 -215 54 -328 6 -15 2 -18 -24 -18 -34 0 -81 -37 -81 -64 0 -31 56 -66 106 -66 14 0 38 7 54 15 18 9 31 11 35 5 12 -20 132 -79 191 -94 149 -38 340 -5 449 78 28 21 33 22 55 10 33 -18 75 -17 116 2 73 35 45 114 -41 114 l-23 0 19 50 c34 90 41 142 43 328 l3 182 60 55 c68 61 93 106 73 130 -16 19 -53 19 -90 0 l-30 -16 0 91 0 91 31 -18 c57 -32 185 -160 238 -238 362 -523 105 -1242 -507 -1424 -328 -98 -696 4 -933 257 -345 368 -337 945 18 1294 60 59 143 127 156 127 4 1 7 -40 7 -89z"/>
 </g>

</svg>