<svg version="1" xmlns="http://www.w3.org/2000/svg" width="348" height="225" viewBox="0 0 3480 2250"><path d="M0 1125V0h3480v2250H0V1125z" fill="#121111"/><path d="M0 1125V0h3480v2250H0V1125zm1240 765v-91l-31 16c-17 9-42 15-57 13-23-2-28-9-30-37-3-31 3-41 64-99l68-65 7-211c6-215 6-215 54-328 6-15 2-18-24-18-34 0-81-37-81-64 0-31 56-66 106-66 14 0 38 7 54 15 18 9 31 11 35 5 12-20 132-79 191-94 149-38 340-5 449 78 28 21 33 22 55 10 33-18 75-17 116 2 73 35 45 114-41 114h-23l19 50c34 90 41 142 43 328l3 182 60 55c68 61 93 106 73 130-16 19-53 19-90 0l-30-16v182l31-18c57-32 185-160 238-238 362-523 105-1242-507-1424-328-98-696 4-933 257-345 368-337 945 18 1294 60 59 143 127 156 127 4 1 7-40 7-89z" fill="#fff"/></svg>